<?xml version="1.0" standalone="no"?>
<!DOCTYPE svg PUBLIC "-//W3C//DTD SVG 20010904//EN"
 "http://www.w3.org/TR/2001/REC-SVG-20010904/DTD/svg10.dtd">
<svg version="1.0" xmlns="http://www.w3.org/2000/svg"
 width="960.000000pt" height="960.000000pt" viewBox="0 0 960.000000 960.000000"
 preserveAspectRatio="xMidYMid meet">
<metadata>
Created by potrace 1.14, written by Peter Selinger 2001-2017
</metadata>
<g transform="translate(0.000000,960.000000) scale(0.100000,-0.100000)"
fill="#000000" stroke="none">
<path d="M5796 8778 c-4 -13 -11 -88 -16 -168 -5 -80 -14 -163 -21 -185 -6
-22 -9 -62 -5 -91 9 -76 -12 -98 -107 -115 -95 -16 -109 -24 -105 -57 2 -21
17 -34 73 -66 38 -22 91 -61 118 -87 45 -44 49 -50 44 -86 -8 -64 -55 -233
-71 -259 -18 -27 -69 -55 -134 -75 -90 -26 -79 -61 22 -67 54 -4 74 0 121 22
64 29 115 34 115 11 0 -20 -54 -80 -95 -105 -19 -12 -62 -25 -97 -31 -35 -5
-84 -20 -109 -33 -84 -43 -138 -45 -189 -6 -23 18 -24 19 -7 38 25 27 21 47
-19 113 -29 48 -39 80 -56 176 -37 217 -75 246 -93 71 -4 -34 -16 -103 -27
-153 -13 -63 -17 -107 -13 -146 6 -54 6 -57 -27 -83 -18 -14 -39 -32 -47 -38
-11 -9 -6 -18 28 -47 42 -37 51 -60 28 -79 -25 -21 -66 -24 -117 -7 -78 26
-86 17 -50 -53 20 -40 43 -68 70 -86 22 -14 42 -26 46 -26 3 0 19 -9 35 -21
24 -17 29 -27 29 -62 0 -60 -29 -100 -112 -154 -65 -43 -79 -48 -130 -48 -42
0 -64 5 -85 21 -46 35 -37 48 42 57 97 12 139 28 143 54 2 12 10 27 18 33 8 7
14 21 14 31 0 17 -9 19 -95 19 -78 0 -104 4 -150 24 -68 31 -73 55 -17 90 52
33 92 72 92 91 0 16 -7 18 -58 15 -31 -2 -62 13 -62 30 0 11 91 57 127 65 36
7 46 17 62 64 16 49 2 61 -74 61 -46 0 -68 5 -83 18 -26 22 -48 129 -63 306
-6 77 -15 151 -18 164 -9 31 -28 40 -34 15 -3 -10 -21 -74 -40 -143 -57 -202
-70 -272 -56 -303 10 -23 9 -30 -6 -47 -10 -11 -30 -20 -45 -20 -31 0 -53 -20
-45 -41 3 -8 19 -22 36 -31 51 -30 35 -51 -46 -63 -103 -16 -117 -31 -70 -75
14 -13 25 -31 25 -41 0 -30 24 -40 71 -30 36 8 47 7 59 -5 13 -14 13 -17 -5
-30 -11 -9 -37 -23 -58 -31 -32 -13 -38 -19 -33 -38 9 -37 -47 -65 -81 -40
-17 13 -17 14 0 33 19 21 14 47 -11 57 -9 3 -40 3 -69 -1 -49 -6 -53 -5 -62
18 -13 35 -59 62 -106 62 -39 1 -40 2 -56 49 -16 49 -53 107 -68 107 -5 0 -14
-13 -21 -29 -6 -16 -32 -49 -56 -73 -24 -24 -44 -47 -44 -51 0 -5 7 -24 16
-43 24 -49 14 -64 -43 -64 -26 -1 -70 -7 -98 -14 -43 -11 -51 -17 -55 -42 -5
-26 -12 -31 -67 -45 -107 -29 -138 -32 -157 -14 -15 15 -14 19 4 53 58 111 60
210 5 271 -18 20 -40 51 -49 68 -9 18 -32 48 -51 68 -51 50 -42 90 11 50 47
-36 97 -8 110 62 10 52 -3 81 -56 130 -56 52 -61 69 -25 83 50 19 107 145 75
165 -6 4 -41 11 -78 16 -67 10 -100 28 -88 48 4 6 15 11 25 11 22 0 51 31 51
54 0 26 -25 69 -70 121 -30 35 -40 55 -41 83 -1 20 -5 51 -8 67 -7 29 -8 27
-26 -30 -10 -33 -23 -73 -30 -90 -7 -16 -21 -49 -30 -72 -10 -23 -26 -50 -36
-59 -27 -25 -23 -44 11 -50 69 -14 57 -60 -23 -83 -50 -15 -78 -38 -70 -57 3
-8 29 -26 58 -40 86 -40 83 -71 -7 -93 -59 -15 -108 -37 -108 -50 0 -4 11 -18
24 -30 13 -13 39 -64 57 -113 l33 -91 -31 -26 c-16 -14 -38 -31 -48 -37 -28
-16 -13 -37 47 -71 29 -17 59 -37 66 -46 29 -34 -32 -83 -85 -68 -58 17 -84
-26 -40 -66 26 -25 80 -53 100 -53 26 0 68 -41 65 -64 -5 -33 -98 -76 -165
-76 -45 0 -55 -3 -69 -25 -23 -34 -8 -66 46 -100 23 -14 40 -31 37 -38 -2 -7
-28 -13 -60 -15 -93 -5 -68 -49 41 -72 56 -13 74 -26 45 -37 -10 -4 -32 -17
-49 -30 -40 -30 -158 -83 -185 -83 -19 0 -20 4 -14 39 4 25 2 46 -6 59 -10 17
-9 24 9 47 45 57 28 65 -74 34 -34 -10 -48 -10 -73 1 -41 17 -35 31 19 47 48
14 60 26 60 60 0 15 13 31 39 47 48 31 56 42 35 50 -13 5 -15 15 -11 42 7 39
0 64 -16 64 -5 0 -26 -12 -45 -26 -36 -28 -107 -42 -131 -26 -11 8 -10 14 3
35 24 36 35 81 25 99 -5 9 -32 22 -60 29 -28 7 -54 19 -56 26 -3 7 9 29 27 49
42 49 38 82 -12 107 -36 18 -38 21 -38 68 0 27 -4 68 -10 91 -5 24 -12 60 -15
81 -3 21 -10 35 -15 32 -4 -3 -16 -49 -25 -103 -9 -53 -18 -107 -21 -119 -2
-12 -20 -31 -39 -43 -42 -26 -44 -44 -10 -110 14 -27 25 -58 25 -68 0 -20 -24
-45 -53 -55 -14 -5 -57 -83 -57 -103 0 -3 16 -12 36 -20 19 -8 34 -20 31 -27
-5 -17 -49 -24 -154 -26 -51 0 -93 -2 -93 -3 0 -2 6 -20 14 -42 15 -44 30 -56
68 -56 57 0 184 -68 175 -94 -6 -19 -110 -55 -159 -56 -46 0 -48 -1 -48 -30 0
-23 -7 -33 -31 -46 -47 -24 -21 -34 94 -34 81 0 99 -3 104 -16 3 -9 2 -24 -4
-32 -13 -22 -101 -51 -174 -59 -94 -10 -91 -29 11 -59 77 -23 86 -32 59 -60
-26 -27 -18 -44 11 -26 23 14 69 16 103 3 26 -10 38 -44 27 -76 -6 -17 -7 -17
-13 -2 -9 23 -33 21 -67 -3 -46 -33 -72 -30 -82 7 -11 42 -20 46 -67 33 -43
-11 -94 -70 -61 -70 6 0 10 7 10 15 0 19 26 20 33 0 4 -8 0 -27 -8 -42 -13
-25 -13 -29 5 -48 23 -24 17 -35 -17 -35 -13 0 -26 -7 -29 -15 -12 -30 -41
-17 -49 22 -7 41 -51 93 -77 93 -31 0 -47 -40 -45 -118 1 -69 2 -73 22 -68 12
3 30 -1 41 -9 27 -20 44 -18 44 5 0 24 26 26 76 5 56 -23 38 -41 -38 -37 -70
4 -90 -7 -67 -35 10 -12 26 -14 66 -10 50 5 56 3 110 -37 88 -65 93 -73 109
-179 19 -131 11 -164 -45 -194 -29 -15 -48 -20 -55 -14 -17 14 -40 -4 -32 -24
4 -11 13 -15 26 -12 28 7 14 -12 -18 -25 -15 -6 -61 -14 -102 -19 -94 -10
-157 9 -212 64 -37 36 -38 36 -38 13 0 -14 -4 -28 -10 -31 -15 -9 -93 16 -112
36 -22 26 -39 24 -33 -3 2 -13 6 -45 7 -72 l3 -49 -70 -13 c-38 -7 -100 -13
-137 -13 -40 -1 -68 -5 -68 -11 0 -7 28 -10 74 -8 59 2 78 -1 93 -15 11 -9 26
-17 35 -17 8 0 30 -12 49 -26 19 -14 58 -40 88 -57 64 -38 73 -54 34 -63 -55
-12 -63 -16 -63 -28 0 -21 30 -43 105 -76 94 -42 98 -44 98 -55 0 -18 -68 -45
-113 -45 -47 0 -167 16 -191 25 -8 2 -21 1 -29 -5 -12 -8 -9 -15 20 -45 53
-56 136 -93 240 -108 96 -15 105 -18 97 -40 -12 -32 -100 -70 -177 -77 -41 -4
-93 -15 -115 -24 l-40 -17 25 -20 c14 -11 33 -27 43 -34 16 -14 17 -83 17
-1182 0 -1257 0 -1264 52 -1393 56 -141 151 -256 277 -338 36 -23 124 -64 195
-93 72 -28 183 -71 246 -96 63 -25 135 -53 160 -63 25 -11 158 -62 295 -115
138 -53 315 -123 396 -155 80 -32 167 -66 195 -75 27 -9 110 -41 184 -70 74
-29 259 -101 410 -160 151 -58 320 -125 375 -147 113 -46 236 -92 310 -116
110 -35 342 -17 464 35 20 9 45 19 56 24 26 10 503 194 580 224 33 13 141 55
240 93 99 39 234 91 300 115 66 25 194 74 285 110 91 36 244 95 340 132 358
136 477 182 717 277 133 52 204 95 281 171 100 98 152 188 200 341 14 45 16
192 19 1275 3 858 7 1229 15 1238 6 8 33 13 68 13 106 0 119 23 38 67 -28 15
-51 32 -51 38 1 15 94 63 138 71 51 8 91 29 99 50 12 31 -9 38 -69 25 -63 -14
-195 -6 -235 14 -76 39 -74 86 3 67 48 -13 307 -5 307 9 0 4 -7 12 -15 17 -13
7 -9 13 21 33 54 35 81 75 67 97 -8 13 -23 17 -64 15 -74 -3 -153 14 -174 37
-10 11 -23 20 -30 20 -22 0 -45 36 -45 72 0 37 8 44 78 63 12 3 22 14 22 23 0
9 3 27 6 39 7 25 -24 47 -51 37 -26 -10 -15 -57 15 -65 23 -6 22 -7 -8 -8 -18
-1 -49 6 -69 14 -19 8 -44 15 -54 15 -23 0 -23 -3 0 95 11 44 25 123 31 175 7
52 18 107 26 121 7 14 10 36 7 48 -3 12 0 55 7 96 12 71 13 73 36 63 12 -6 30
-8 39 -4 26 10 13 40 -20 47 l-30 6 28 11 c61 25 75 25 79 0 4 -28 54 -39 64
-14 8 21 -13 46 -38 46 -15 0 -19 5 -15 20 4 16 2 18 -13 10 -28 -15 -80 -12
-86 5 -12 30 -31 14 -45 -37 -11 -41 -20 -56 -43 -66 -28 -14 -29 -13 -101 58
l-73 73 -6 -44 c-19 -151 -17 -244 9 -642 l4 -69 -62 6 c-34 4 -81 12 -104 18
l-43 11 0 78 c0 88 -8 99 -73 99 -42 0 -53 -12 -61 -70 -10 -72 -10 -71 -125
-64 -87 6 -102 9 -98 23 30 105 81 305 87 336 8 55 15 63 44 58 18 -4 32 2 51
23 31 34 28 46 -13 59 -18 5 -32 16 -32 25 1 8 17 60 36 115 44 125 58 179 52
196 -3 8 -35 25 -72 37 -92 33 -87 62 11 62 36 0 50 6 74 29 30 30 39 76 17
83 -7 3 -27 0 -45 -5 -25 -8 -44 -5 -92 13 -80 29 -91 44 -49 59 68 25 83 36
83 61 l0 25 -125 0 c-122 0 -128 1 -191 33 -69 35 -129 84 -129 106 0 22 23
25 87 12 50 -11 73 -11 129 1 132 27 230 99 159 117 -34 9 -31 30 6 63 31 28
59 72 59 93 0 19 -31 10 -78 -22 -60 -41 -128 -47 -285 -24 -124 19 -163 31
-171 53 -9 22 0 30 38 37 36 7 62 30 68 61 3 20 16 28 110 69 56 24 84 55 74
82 -7 17 -60 18 -121 2 -36 -10 -50 -10 -63 0 -9 6 -39 23 -65 37 -58 31 -59
53 -2 70 48 14 103 41 129 64 26 23 47 67 40 85 -3 8 -36 33 -74 56 -68 41
-69 41 -125 31 -101 -19 -118 4 -121 152 -1 62 -7 141 -13 176 -12 74 -56 171
-77 171 -12 0 -14 -38 -14 -236 l0 -235 -46 -42 c-50 -45 -50 -49 -28 -165 7
-38 -12 -67 -54 -77 -40 -9 -104 -54 -96 -67 4 -6 23 -8 44 -5 95 13 92 -57
-6 -106 -44 -23 -59 -43 -44 -61 9 -12 35 -15 109 -14 54 1 103 -2 109 -6 7
-4 12 -19 12 -33 0 -35 -62 -93 -137 -128 -71 -34 -163 -102 -163 -122 0 -12
8 -14 33 -9 17 3 60 9 93 12 77 8 89 -5 45 -50 -50 -51 -39 -66 50 -66 68 0
64 -17 -19 -83 -79 -64 -121 -87 -157 -87 -35 0 -32 23 10 54 19 15 35 34 35
42 0 20 -42 34 -106 34 -58 0 -169 32 -193 55 -13 12 -12 19 4 48 12 22 16 43
11 60 -6 25 -10 27 -64 27 -79 1 -202 59 -202 96 0 13 17 14 118 8 117 -6 202
5 202 27 0 5 -11 14 -24 19 -36 13 -39 25 -10 59 40 48 30 65 -41 72 -72 7
-141 27 -156 46 -15 17 2 39 39 48 15 4 51 27 80 52 84 72 66 100 -63 102 -90
2 -241 29 -285 51 -47 24 -85 69 -70 84 6 6 35 9 65 8 34 -1 67 4 84 13 35 18
92 92 84 111 -2 7 -26 27 -52 44 -61 39 -79 59 -87 97 -5 27 0 38 45 87 56 62
61 82 41 186 -16 82 -28 91 -119 84 -69 -5 -79 -4 -111 18 -38 26 -38 27 -24
155 5 53 3 68 -20 116 -17 37 -30 91 -40 167 -8 62 -17 114 -19 116 -3 3 -7
-6 -11 -18z m-188 -1510 c4 -19 -65 -66 -188 -128 -85 -43 -111 -48 -129 -26
-10 11 -7 18 15 33 15 10 48 39 73 65 43 44 49 47 83 42 30 -5 39 -3 50 15 10
17 21 21 53 19 28 -2 41 -8 43 -20z m-2 -163 c13 -33 -67 -105 -102 -91 -20 8
-17 60 4 78 31 28 90 36 98 13z m481 -67 c27 -25 29 -43 8 -52 -20 -7 -64 10
-71 29 -17 44 25 59 63 23z m-1816 -147 c24 -11 71 -22 104 -26 76 -9 85 -17
78 -63 -8 -53 -27 -78 -86 -112 -88 -51 -99 -38 -37 42 57 71 52 83 -35 84
-67 1 -125 19 -140 44 -5 8 49 50 66 50 4 0 26 -9 50 -19z m-723 -83 c8 -8 9
-15 1 -25 -15 -17 -55 -17 -62 1 -11 29 37 48 61 24z m150 -194 c14 -75 4
-121 -38 -174 -17 -21 -21 -23 -30 -10 -5 8 -10 35 -10 58 0 36 -5 49 -30 70
-36 32 -37 45 -5 86 54 68 54 69 78 53 16 -11 25 -33 35 -83z m1889 -161 c-2
-22 2 -28 18 -28 15 0 20 7 20 25 1 20 5 25 25 23 14 -1 71 -5 128 -9 86 -6
109 -11 142 -33 51 -32 70 -75 77 -164 6 -86 -9 -157 -35 -157 -9 0 -30 -11
-47 -24 -24 -20 -27 -26 -17 -39 7 -8 26 -20 42 -27 31 -13 60 -70 60 -120 0
-39 -8 -41 -58 -18 -40 19 -43 19 -68 4 -21 -14 -25 -24 -22 -54 3 -32 7 -37
38 -45 19 -5 47 -9 63 -10 l27 0 0 -82 0 -83 -81 -7 c-44 -4 -83 -4 -86 -1 -3
3 2 15 12 26 17 18 17 21 0 56 -14 30 -15 47 -7 102 12 89 -12 201 -49 219
-34 18 -57 16 -64 -6 -4 -12 -12 -17 -24 -14 -9 2 -23 -3 -30 -11 -8 -9 -22
-16 -32 -16 -10 0 -21 -4 -24 -10 -9 -15 -25 -12 -25 5 0 9 -11 21 -25 27 -23
10 -25 16 -25 79 0 69 11 87 41 68 21 -13 59 -11 59 4 0 7 10 17 22 22 28 13
34 33 13 41 -10 4 -21 -1 -30 -12 -11 -16 -14 -16 -18 -4 -3 8 -8 23 -11 33
-6 18 -32 22 -56 7 -32 -20 -40 8 -40 136 l0 124 44 0 c43 0 45 -1 43 -27z
m-614 0 c2 -10 -3 -26 -12 -36 -11 -13 -12 -20 -3 -29 14 -14 46 -2 39 16 -5
12 22 34 27 24 1 -2 7 -16 14 -31 14 -32 32 -31 47 1 6 15 19 22 37 22 14 0
40 12 57 26 17 14 38 24 47 22 26 -5 41 -86 49 -258 4 -85 13 -177 20 -205 19
-68 73 -365 75 -409 0 -10 -190 -4 -207 7 -9 5 -13 33 -13 77 0 79 -10 90 -78
90 -46 0 -59 -20 -60 -90 -1 -61 -16 -70 -124 -70 -77 0 -88 2 -88 18 0 9 9
80 20 157 11 77 20 156 20 176 0 53 9 69 39 70 16 0 34 11 49 29 20 26 21 30
6 44 -8 9 -26 16 -40 16 -27 0 -29 9 -14 80 6 25 14 65 19 90 29 144 33 166
38 173 8 14 32 7 36 -10z m77 13 c0 -3 -4 -8 -10 -11 -5 -3 -10 -1 -10 4 0 6
5 11 10 11 6 0 10 -2 10 -4z m-443 -28 c-31 -122 -44 -163 -70 -223 -44 -99
-45 -151 -9 -255 16 -47 37 -102 46 -123 16 -37 16 -39 -3 -44 -21 -5 -35 -29
-25 -44 3 -5 18 -9 34 -9 37 0 52 -27 44 -79 -7 -44 -23 -51 -121 -51 -52 0
-54 1 -69 36 -8 19 -17 49 -20 67 -3 18 -19 71 -36 120 -24 67 -35 87 -49 87
-22 0 -26 -16 -33 -121 -2 -44 0 -81 5 -86 6 -6 9 -32 7 -59 -3 -45 -5 -48
-36 -56 -20 -6 -40 -5 -53 3 -17 9 -28 7 -55 -7 -24 -13 -37 -15 -45 -7 -14
14 -24 293 -12 358 6 33 4 121 -6 258 -13 180 -13 210 0 221 15 14 186 28 194
16 2 -4 5 -68 6 -143 1 -104 5 -140 16 -148 18 -15 33 -1 47 43 9 27 16 32 41
33 23 0 30 5 30 20 0 13 -8 21 -22 23 -28 4 -28 5 -3 77 11 32 20 66 20 75 0
31 22 40 103 40 77 0 79 -1 74 -22z m-1659 2 c26 0 10 -32 -23 -46 -36 -15
-105 -19 -105 -6 1 27 64 65 95 57 11 -2 26 -5 33 -5z m3406 -22 c3 -13 1 -27
-4 -32 -6 -6 -10 -18 -10 -29 0 -25 34 -18 38 8 3 11 10 24 18 28 8 4 14 15
14 22 0 8 5 15 10 15 13 0 13 -13 -1 -27 -13 -13 -2 -60 17 -67 8 -3 21 5 30
19 12 18 25 25 49 25 19 0 39 8 50 20 10 11 28 20 41 20 31 0 37 -41 39 -260
1 -103 9 -220 19 -285 30 -199 45 -330 38 -337 -11 -10 -182 9 -199 23 -12 10
-14 26 -10 70 7 76 -9 99 -67 99 -48 0 -66 -13 -66 -48 0 -14 -5 -42 -12 -63
l-11 -39 -97 0 c-53 0 -99 2 -101 5 -3 2 10 78 28 167 18 90 33 175 33 190 0
41 10 58 36 58 22 0 74 39 74 55 0 12 -33 34 -52 35 -24 0 -23 12 8 133 14 56
31 122 38 147 18 72 38 91 50 48z m-2852 -75 c22 -109 38 -216 38 -262 0 -21
7 -60 16 -87 29 -92 65 -229 80 -304 8 -41 20 -85 26 -97 6 -13 9 -25 7 -27
-11 -11 -206 -18 -213 -8 -4 6 -10 41 -15 77 -4 39 -14 70 -22 76 -22 14 -72
11 -97 -7 -18 -13 -22 -25 -22 -73 0 -35 -5 -63 -12 -69 -7 -5 -55 -13 -106
-17 l-93 -7 6 49 c8 73 23 304 21 338 -1 24 3 31 23 33 24 4 70 48 71 69 0 13
-37 28 -62 24 -23 -3 -23 9 2 175 12 74 18 139 15 145 -7 10 12 39 25 39 4 0
12 -11 18 -25 8 -17 8 -25 1 -25 -6 0 -9 -10 -7 -22 4 -31 32 -29 37 2 1 14 6
27 10 30 4 3 13 14 19 25 11 18 12 18 6 -7 -12 -55 37 -93 56 -43 6 17 17 25
33 25 13 0 34 11 47 25 13 14 35 25 50 25 24 0 27 -5 42 -77z m3412 48 c9 -14
-5 -41 -20 -41 -20 0 -30 30 -13 41 18 11 26 11 33 0z m152 -37 c-3 -9 -6 -24
-6 -34 0 -14 -9 -20 -32 -22 -25 -2 -34 -8 -36 -25 -3 -19 1 -23 22 -23 16 0
26 -6 26 -14 0 -24 44 -85 60 -83 17 2 19 -34 9 -224 l-5 -114 -17 38 c-23 49
-50 49 -76 0 -10 -20 -7 -27 25 -63 35 -38 75 -53 89 -31 3 5 19 12 35 16 58
13 76 55 24 55 -27 0 -34 30 -10 49 8 7 15 38 18 76 2 35 7 67 10 70 3 4 15 1
27 -7 18 -11 24 -9 56 22 38 37 35 39 39 -32 1 -15 11 -34 21 -43 19 -13 16
-14 -29 -15 -79 0 -111 -46 -63 -90 13 -13 31 -20 45 -17 15 3 22 -1 22 -12
-1 -31 -29 -134 -39 -144 -11 -11 -13 -8 -15 28 -1 14 -8 20 -26 20 -21 0 -26
-5 -28 -33 -3 -26 1 -34 19 -40 12 -5 23 -17 24 -28 1 -10 5 -29 9 -40 10 -31
-37 -84 -72 -84 -36 0 -49 10 -53 39 -5 31 -56 52 -73 29 -6 -8 -36 -18 -68
-21 -49 -6 -58 -5 -58 8 0 9 13 21 29 26 16 6 32 17 35 26 7 18 -20 53 -41 53
-7 0 -13 4 -13 9 0 5 8 8 18 7 11 -1 17 6 17 19 0 13 -7 20 -20 20 -28 0 -32
34 -6 51 21 15 29 44 12 44 -27 0 -41 34 -41 95 0 61 -14 271 -25 363 -4 37
-2 42 15 42 11 0 27 11 36 25 14 21 24 25 66 25 42 0 49 -3 44 -16z m-4546
-19 c16 -20 64 -19 96 1 19 13 40 15 88 12 75 -6 100 -17 68 -29 -29 -11 -39
-54 -18 -78 9 -10 16 -25 16 -35 0 -9 7 -19 15 -22 27 -11 17 -34 -15 -34 -18
0 -33 -6 -36 -15 -4 -8 -14 -15 -24 -15 -14 0 -20 10 -25 44 -8 51 -36 86 -69
86 -34 0 -47 -22 -48 -82 0 -29 -4 -60 -9 -69 -10 -19 8 -40 27 -32 8 3 26 -2
40 -12 21 -14 23 -19 13 -32 -21 -25 16 -46 68 -39 36 5 49 1 85 -23 24 -16
58 -45 77 -65 39 -40 49 -85 50 -215 1 -79 -13 -111 -50 -111 -10 0 -21 -4
-24 -10 -3 -5 -19 -7 -34 -4 -36 7 -49 -11 -26 -36 17 -19 17 -20 -1 -27 -11
-5 -66 -8 -124 -8 -100 0 -107 1 -150 30 -39 27 -48 39 -68 100 -12 39 -21 86
-20 105 3 32 6 35 30 32 15 -2 37 2 48 8 17 9 25 8 39 -4 10 -9 25 -16 35 -16
12 0 17 -7 14 -23 -5 -39 59 -117 95 -117 42 0 56 28 55 105 0 39 -5 76 -11
83 -7 9 -4 18 12 33 43 40 2 65 -49 29 l-29 -21 -40 20 c-22 12 -43 25 -46 31
-4 6 -28 21 -54 34 -61 31 -108 80 -133 136 -17 38 -19 57 -13 130 8 98 17
120 49 120 12 0 32 11 44 25 25 29 35 31 52 10z m4750 -5 c0 -11 -4 -20 -9
-20 -11 0 -22 26 -14 34 12 12 23 5 23 -14z m130 11 c0 -5 -9 -11 -20 -14 -13
-3 -20 0 -20 9 0 8 9 14 20 14 11 0 20 -4 20 -9z m50 -35 c0 -36 -12 -52 -31
-41 -7 5 -5 13 6 25 15 16 15 19 0 34 -15 15 -15 16 4 16 17 0 21 -6 21 -34z
m-4420 -16 c0 -5 -12 -23 -27 -40 -26 -27 -30 -29 -53 -17 -37 19 -31 40 15
53 51 16 65 16 65 4z m-177 -6 c9 -10 -4 -34 -19 -34 -8 0 -14 9 -14 20 0 19
19 27 33 14z m4478 -54 c10 -6 19 -17 19 -25 0 -8 9 -20 20 -28 16 -11 19 -21
15 -40 -4 -14 -2 -28 4 -31 6 -4 11 -18 11 -32 0 -17 -5 -24 -20 -24 -15 0
-20 7 -20 25 0 14 -7 28 -15 31 -8 3 -17 14 -20 24 -3 10 -24 25 -45 34 -31
12 -40 21 -40 40 0 19 6 26 28 29 15 2 31 5 35 6 5 0 17 -4 28 -9z m-5157 -33
c-8 -21 -23 -22 -31 -1 -7 18 17 38 30 25 4 -4 5 -15 1 -24z m693 7 c5 -15
-21 -53 -31 -43 -7 7 6 59 15 59 6 0 12 -7 16 -16z m-661 -54 c20 0 18 -23 -3
-36 -30 -19 -38 -15 -38 16 0 21 4 29 13 25 8 -3 20 -5 28 -5z m3504 -199 c0
-5 -7 -14 -15 -21 -9 -7 -14 -19 -11 -26 8 -20 -11 -26 -36 -13 l-22 12 32 28
c32 29 52 37 52 20z m-133 -122 c3 -10 14 -21 24 -24 14 -5 19 -14 17 -33 -2
-22 3 -30 32 -44 50 -25 71 -54 64 -87 -4 -14 -10 -30 -14 -35 -11 -12 -39 6
-53 35 -19 37 -54 37 -75 0 -19 -34 -39 -40 -49 -15 -6 16 14 90 30 112 7 8 5
18 -5 30 -16 18 -31 86 -21 96 10 9 45 -15 50 -35z m-3757 -478 c78 -47 91
-64 68 -87 -15 -15 -26 -16 -100 -6 -68 10 -87 16 -105 37 -23 26 -28 50 -17
79 12 31 84 20 154 -23z m4257 -178 c11 -10 44 -46 73 -80 l53 -63 577 0 c536
0 579 -1 598 -17 33 -29 172 -255 172 -280 0 -13 -7 -40 -15 -60 -8 -19 -15
-45 -15 -57 0 -18 59 -267 161 -686 30 -121 31 -128 19 -220 -10 -84 -53 -358
-67 -432 -4 -22 2 -34 32 -63 37 -35 38 -35 32 -97 -9 -102 -27 -230 -38 -271
-13 -48 -50 -66 -192 -95 -102 -21 -115 -21 -157 9 -25 17 -27 16 -79 -9 -48
-24 -56 -33 -76 -85 -41 -104 -128 -187 -239 -229 -65 -25 -192 -27 -261 -4
-100 34 -191 110 -234 195 -12 22 -25 42 -31 46 -5 3 -97 3 -204 -1 l-194 -7
-11 -39 c-8 -26 -23 -46 -44 -59 -31 -19 -49 -19 -432 -17 -445 3 -440 3 -468
71 l-14 32 -243 -5 -243 -5 -16 -25 c-9 -14 -38 -49 -65 -78 -118 -126 -316
-162 -474 -86 -63 31 -142 105 -171 162 -11 22 -24 43 -29 46 -5 3 -143 17
-308 31 -164 14 -402 34 -529 45 -126 11 -250 22 -275 25 -38 4 -52 1 -80 -20
-40 -29 -75 -31 -204 -11 -51 9 -96 22 -107 32 -24 21 -38 68 -37 119 0 22 -4
83 -10 135 -11 93 -10 96 13 132 13 20 34 39 45 43 33 11 17 29 -30 36 -35 5
-51 14 -77 45 l-34 39 7 415 c5 322 10 421 21 442 17 34 61 58 107 58 71 0 66
-31 66 410 0 229 4 409 10 424 5 14 20 32 33 41 26 16 71 18 1447 46 305 6
800 17 1100 23 300 7 674 14 831 15 260 1 289 -1 306 -16z m-4197 -1208 c9
-105 15 -440 19 -970 6 -798 7 -811 28 -862 48 -118 122 -207 212 -256 26 -15
146 -64 267 -111 120 -46 345 -133 499 -194 154 -60 438 -170 630 -245 193
-75 517 -201 720 -280 626 -244 556 -221 670 -221 88 0 110 4 180 31 100 39
402 155 693 267 123 47 251 97 285 110 34 14 251 97 482 186 231 89 506 194
610 235 105 40 269 103 365 140 96 37 199 83 228 102 64 43 123 110 157 180
53 108 55 128 55 918 0 535 4 785 15 934 13 188 18 222 29 210 2 -2 11 -108
20 -234 12 -178 16 -396 16 -966 0 -806 1 -788 -61 -911 -63 -125 -177 -218
-346 -283 -325 -125 -612 -236 -778 -300 -198 -76 -484 -187 -715 -275 -74
-29 -173 -67 -220 -85 -47 -18 -204 -79 -350 -135 -146 -56 -316 -122 -379
-146 -118 -47 -226 -74 -289 -74 -78 1 -179 33 -532 170 -201 78 -432 168
-515 200 -82 32 -359 140 -615 240 -256 99 -616 240 -800 311 -184 72 -354
141 -377 154 -108 64 -200 182 -246 315 -21 64 -22 74 -25 750 -2 539 0 739
13 940 24 391 34 418 55 155z"/>
<path d="M5707 6343 c-11 -10 -8 -169 3 -197 16 -43 82 -29 101 21 12 33 0
151 -18 169 -15 14 -74 19 -86 7z"/>
<path d="M5622 6308 c-6 -6 -12 -23 -12 -36 0 -20 4 -23 28 -20 23 2 27 8 27
33 0 32 -22 44 -43 23z"/>
<path d="M5521 6296 c-8 -10 -8 -16 2 -24 17 -14 42 2 34 22 -8 20 -21 20 -36
2z"/>
<path d="M5065 6238 c-2 -7 -13 -74 -24 -148 -12 -74 -23 -147 -26 -161 -7
-43 14 -61 65 -57 l45 3 3 55 c3 59 -14 278 -24 304 -7 19 -33 21 -39 4z"/>
<path d="M4961 6112 c-8 -15 -7 -23 4 -32 21 -18 47 -4 43 22 -4 29 -34 35
-47 10z"/>
<path d="M5187 6063 c-4 -3 -7 -15 -7 -25 0 -20 44 -26 55 -8 14 22 -30 52
-48 33z"/>
<path d="M5080 5815 c0 -20 4 -26 18 -23 9 2 17 12 17 23 0 11 -8 21 -17 23
-14 3 -18 -3 -18 -23z"/>
<path d="M4145 6160 c-4 -7 -3 -16 3 -22 14 -14 45 -2 40 15 -6 16 -34 21 -43
7z"/>
<path d="M4440 6070 c0 -13 7 -20 20 -20 13 0 20 7 20 20 0 13 -7 20 -20 20
-13 0 -20 -7 -20 -20z"/>
<path d="M4227 5873 c-12 -12 -7 -31 9 -37 21 -8 45 11 37 30 -5 14 -34 19
-46 7z"/>
<path d="M4164 5716 c-9 -24 3 -46 26 -46 17 0 21 5 18 27 -3 31 -34 44 -44
19z"/>
<path d="M6437 6203 c-3 -4 -8 -30 -12 -58 -4 -27 -15 -80 -25 -117 -10 -37
-22 -92 -26 -124 -8 -65 -1 -74 57 -74 61 0 63 9 53 203 -8 148 -11 172 -26
175 -9 2 -18 -1 -21 -5z"/>
<path d="M6323 6074 c-3 -8 2 -23 11 -32 15 -15 17 -15 32 0 21 21 11 48 -16
48 -11 0 -23 -7 -27 -16z"/>
<path d="M6544 6006 c-9 -22 4 -36 32 -36 21 0 25 4 22 23 -4 26 -45 37 -54
13z"/>
<path d="M6432 5791 c-15 -9 -5 -41 13 -41 8 0 17 5 21 11 9 15 -18 40 -34 30z"/>
<path d="M3316 6178 c-7 -35 -20 -215 -20 -288 l-1 -65 55 0 55 0 -2 63 c-3
61 -39 287 -49 304 -10 16 -34 8 -38 -14z"/>
<path d="M3224 6055 c-8 -21 2 -45 19 -45 8 0 20 7 27 15 10 12 10 18 0 30 -7
8 -19 15 -27 15 -7 0 -16 -7 -19 -15z"/>
<path d="M3444 6005 c-8 -21 4 -35 31 -35 29 0 41 16 25 35 -16 19 -49 19 -56
0z"/>
<path d="M3363 5774 c-8 -21 13 -42 28 -27 13 13 5 43 -11 43 -6 0 -13 -7 -17
-16z"/>
<path d="M2787 5853 c-12 -11 -8 -61 6 -66 20 -7 67 22 67 42 0 26 -54 44 -73
24z"/>
<path d="M2546 5671 c-10 -16 5 -42 23 -39 21 4 21 42 -1 46 -9 2 -19 -1 -22
-7z"/>
<path d="M2585 5580 c-4 -7 -3 -16 3 -22 14 -14 45 -2 40 15 -6 16 -34 21 -43
7z"/>
<path d="M5480 5143 c-36 -1 -303 -7 -595 -13 -2483 -49 -2458 -49 -2475 -66
-13 -12 -16 -78 -20 -442 l-5 -427 -73 -5 c-119 -8 -112 22 -112 -456 l0 -403
23 -26 c17 -20 35 -28 77 -33 l55 -7 3 -57 c3 -56 2 -58 -23 -58 -26 0 -65
-31 -65 -52 2 -49 29 -278 34 -286 10 -16 68 -30 159 -38 69 -6 80 -5 100 13
12 11 27 23 34 27 6 3 110 -3 230 -13 120 -11 387 -34 593 -51 206 -17 380
-33 387 -35 6 -2 26 -31 44 -65 52 -98 137 -158 257 -182 64 -13 150 0 215 34
53 26 123 93 153 144 14 23 35 45 47 48 17 4 466 9 545 6 7 0 12 -14 12 -34 0
-66 -1 -66 422 -66 220 0 387 4 402 10 21 8 26 16 26 43 0 64 1 64 261 71
l236 6 32 -65 c62 -125 180 -198 321 -198 163 0 299 101 345 256 12 40 16 44
99 80 l88 39 27 -32 27 -33 109 26 c60 15 115 33 123 41 15 15 35 121 47 250
l7 76 -36 15 c-25 11 -36 22 -36 36 0 11 20 145 46 297 l45 277 -20 85 c-11
47 -56 232 -100 412 l-79 326 21 59 20 58 -72 115 c-40 63 -80 121 -89 128
-12 9 -146 12 -593 12 l-577 0 -68 80 -67 80 -251 -2 c-138 -1 -280 -3 -316
-5z m1848 -575 c6 -18 27 -107 47 -198 20 -91 40 -179 45 -196 6 -17 10 -44
10 -60 -1 -16 -11 10 -25 61 -13 50 -35 135 -50 190 -15 55 -31 120 -37 145
-14 59 -25 72 -62 68 l-31 -3 4 -280 c2 -182 7 -285 14 -293 8 -10 33 -13 95
-10 68 2 86 7 97 22 14 18 15 18 26 -8 9 -18 9 -30 2 -37 -6 -6 -158 -11 -414
-12 l-404 -2 0 315 0 315 85 6 c47 3 198 6 337 7 l251 2 10 -32z m121 -140
c23 -95 65 -265 93 -378 47 -191 50 -209 40 -260 -6 -30 -34 -176 -63 -324
-33 -168 -59 -276 -69 -289 -16 -19 -28 -20 -413 -25 -218 -2 -411 -2 -430 2
-23 4 -38 14 -45 32 -8 17 -12 122 -12 334 l0 310 -222 0 c-123 0 -260 -3
-305 -7 l-83 -6 0 -363 0 -364 770 0 770 0 0 -29 c0 -66 -32 -98 -119 -117
-25 -6 -25 -5 4 15 19 13 24 21 14 21 -28 0 -113 -33 -149 -57 l-35 -24 38 7
c20 3 37 4 37 1 0 -12 -133 -67 -145 -60 -8 5 -32 34 -55 66 l-41 57 -253 0
-253 0 -58 -76 c-32 -42 -68 -82 -79 -89 -17 -10 -198 -16 -841 -25 -451 -7
-863 -13 -915 -14 l-95 -1 -45 92 c-25 51 -50 97 -55 102 -12 12 -464 36 -498
27 -14 -4 -43 -40 -81 -102 l-58 -97 -102 7 c-55 4 -103 10 -106 12 -3 3 -7
164 -10 357 l-5 352 -440 0 -440 0 -5 -315 -5 -315 -80 4 c-44 1 -87 7 -96 12
-17 8 -75 177 -65 187 9 8 148 8 179 -1 l27 -7 0 224 c0 191 2 227 16 240 14
14 70 16 469 16 399 0 455 -2 469 -16 14 -13 16 -51 16 -256 0 -233 1 -241 18
-225 17 15 70 17 558 17 296 0 617 3 712 7 l172 6 0 386 c0 313 -3 381 -13
362 -7 -14 -25 -28 -42 -32 -16 -4 -304 -12 -640 -18 -335 -6 -866 -16 -1180
-22 -313 -6 -605 -9 -647 -7 l-78 3 0 -143 c0 -109 -4 -150 -15 -172 -9 -17
-20 -30 -25 -30 -6 0 -10 84 -10 219 l0 219 70 93 70 92 0 228 c0 198 2 228
16 233 9 3 114 6 235 6 l219 0 0 -322 c0 -187 4 -329 10 -338 7 -11 25 -15 67
-14 32 1 353 7 713 13 765 13 776 14 784 44 3 12 5 141 6 286 0 146 3 267 5
270 3 2 6 -31 6 -75 1 -75 15 -164 18 -119 1 11 6 78 11 149 4 70 12 132 17
136 4 4 105 9 223 11 l215 4 3 -799 c1 -570 5 -803 13 -813 16 -18 739 -19
757 -1 9 9 12 204 12 814 0 719 2 803 16 815 11 9 20 10 32 2 15 -9 17 -43 20
-314 2 -227 5 -305 15 -311 6 -4 101 -8 209 -8 187 0 198 1 208 20 7 13 10
123 10 316 -1 237 1 299 12 305 7 5 34 9 60 9 62 0 68 -12 69 -137 1 -54 4
-109 8 -123 7 -23 8 -21 14 15 3 22 9 74 14 115 5 48 10 -167 13 -585 l5 -660
401 -3 c314 -2 404 1 411 10 6 7 29 112 52 233 23 121 50 257 58 303 15 78 15
88 -1 160 -17 73 -55 235 -125 528 -37 155 -36 154 -12 154 16 0 25 -25 60
-172z m-1091 -145 l-3 -298 -150 -3 c-82 -1 -160 0 -172 3 l-23 5 0 289 c0
222 3 291 13 294 6 3 85 6 175 6 l162 1 -2 -297z m-501 -73 c2 -195 -1 -360
-5 -366 -5 -8 -110 -13 -347 -15 l-340 -4 0 365 0 365 145 6 c80 3 235 5 345
5 l200 -1 2 -355z m-1289 13 l2 -311 -102 -6 c-57 -3 -233 -8 -393 -11 -159
-3 -445 -8 -633 -11 -285 -6 -345 -5 -352 7 -15 23 -12 582 2 602 12 15 68 18
543 27 292 6 566 12 610 13 44 2 134 3 200 3 l120 -1 3 -312z m2906 -309 c21
-8 20 -41 -1 -48 -10 -2 -199 -8 -420 -11 -367 -7 -403 -6 -409 9 -3 9 -1 23
6 31 10 12 66 15 344 18 182 1 361 3 398 5 36 1 73 -1 82 -4z m-664 -204 c0
-5 -18 -10 -40 -10 -22 0 -40 5 -40 10 0 6 18 10 40 10 22 0 40 -4 40 -10z
m-1540 -76 c0 -41 -4 -63 -10 -59 -5 3 -10 33 -10 66 0 33 4 59 10 59 6 0 10
-29 10 -66z m-2100 -264 c0 -5 -18 -10 -40 -10 -22 0 -40 5 -40 10 0 6 18 10
40 10 22 0 40 -4 40 -10z m2684 -306 c10 -26 7 -69 -6 -82 -17 -17 -659 -17
-676 0 -7 7 -12 26 -12 43 0 17 5 36 12 43 9 9 99 12 344 12 293 0 333 -2 338
-16z m-2316 -122 c2 -97 0 -123 -11 -128 -8 -3 -68 0 -133 5 -65 6 -231 20
-369 31 -137 12 -260 23 -273 26 -22 4 -23 8 -20 92 l3 87 60 5 c33 3 213 5
400 5 l340 0 3 -123z m791 -21 c26 -26 37 -102 22 -152 -37 -123 -185 -179
-293 -110 -63 40 -92 101 -86 181 5 69 11 79 38 62 17 -10 20 -10 20 6 0 10 3
22 7 25 3 4 66 7 140 7 118 0 135 -2 152 -19z m2625 -13 c52 -81 10 -210 -84
-258 -88 -45 -195 -16 -254 68 -26 36 -31 53 -31 101 0 63 18 99 40 81 9 -8
14 -5 18 10 5 19 13 20 151 20 140 0 146 -1 160 -22z"/>
<path d="M6920 4568 c-124 -4 -231 -10 -237 -13 -16 -6 -19 -555 -3 -555 5 0
37 20 70 44 63 47 71 50 131 60 51 9 122 74 153 141 15 30 37 79 51 108 13 29
40 71 60 94 25 30 35 51 35 75 0 31 -15 60 -29 56 -4 0 -107 -5 -231 -10z"/>
<path d="M7153 4378 c-25 -32 -37 -68 -44 -127 -12 -109 -73 -173 -199 -211
-68 -20 -103 -44 -78 -51 7 -3 90 -2 183 1 l170 5 3 175 c3 210 -3 248 -35
208z"/>
<path d="M4784 4477 c-3 -8 -4 -54 -2 -103 l3 -89 123 -3 c111 -2 122 -1 123
15 3 49 -1 175 -6 183 -10 16 -235 13 -241 -3z m192 -69 c3 -4 -30 -8 -73 -8
-54 0 -73 3 -63 10 17 11 129 10 136 -2z m12 -70 c3 -16 -6 -18 -77 -18 -44 0
-83 5 -86 10 -14 23 9 31 83 28 64 -3 77 -6 80 -20z"/>
<path d="M2651 4451 c-36 -23 5 -31 164 -31 109 0 166 4 171 11 13 22 -24 29
-171 29 -82 0 -156 -4 -164 -9z"/>
<path d="M2651 4381 c-36 -23 5 -31 164 -31 109 0 166 4 171 11 13 22 -24 29
-171 29 -82 0 -156 -4 -164 -9z"/>
<path d="M2645 4309 c-16 -24 18 -29 176 -27 138 3 164 5 164 18 0 13 -26 15
-167 18 -114 2 -169 -1 -173 -9z"/>
<path d="M4546 2982 c-2 -4 -1 -13 3 -20 6 -9 66 -12 242 -10 200 3 234 5 234
18 0 13 -34 15 -237 18 -130 1 -239 -1 -242 -6z"/>
<path d="M5957 2984 c-4 -4 -7 -13 -7 -21 0 -10 47 -13 241 -13 224 0 240 1
237 18 -3 15 -23 17 -234 20 -127 1 -233 -1 -237 -4z"/>
<path d="M4631 2886 c-22 -26 12 -34 142 -35 139 -1 177 4 177 24 0 21 -25 25
-170 25 -104 0 -140 -3 -149 -14z"/>
<path d="M6043 2893 c-18 -7 -16 -30 3 -37 28 -11 274 -7 296 5 21 11 21 12 3
25 -14 10 -54 14 -154 13 -75 0 -142 -3 -148 -6z"/>
<path d="M6085 4543 c-16 -3 -33 -10 -37 -16 -9 -14 -11 -468 -2 -491 3 -9 17
-16 30 -16 18 0 31 14 60 66 33 59 37 75 44 170 7 94 12 113 44 174 39 76 44
105 20 114 -17 6 -111 6 -159 -1z"/>
<path d="M6270 4383 c-38 -60 -45 -101 -30 -172 12 -59 10 -141 -5 -174 -7
-16 -3 -18 41 -15 l49 3 3 203 c2 176 0 202 -13 202 -8 0 -29 -21 -45 -47z"/>
<path d="M5467 4505 c-74 -26 -124 -97 -147 -210 -37 -180 65 -365 202 -365
74 0 143 58 184 155 21 49 24 200 6 262 -18 60 -70 124 -122 151 -51 25 -70
27 -123 7z m150 -77 c81 -79 93 -271 23 -381 -28 -44 -79 -77 -120 -77 -38 0
-91 32 -116 69 -13 20 -31 65 -40 101 -36 141 29 308 128 329 46 10 86 -3 125
-41z"/>
<path d="M5466 4419 c-91 -72 -101 -288 -17 -378 23 -24 37 -31 68 -31 76 0
118 59 129 183 10 109 -9 168 -31 95 -19 -62 -71 -63 -89 -1 -13 46 10 87 54
93 l34 5 -33 28 c-39 32 -78 35 -115 6z m162 -240 c2 -16 -3 -29 -12 -32 -20
-8 -39 18 -31 43 9 29 39 21 43 -11z"/>
<path d="M5440 3901 c0 -17 100 -27 148 -15 47 13 18 24 -63 24 -47 0 -85 -4
-85 -9z"/>
<path d="M4180 4481 l-25 -7 0 -259 0 -260 177 -3 c164 -2 178 -1 187 16 13
24 13 480 0 504 -22 40 -106 13 -129 -42 -11 -26 -9 -35 14 -74 38 -66 31
-121 -23 -170 -25 -23 -37 -16 -22 12 20 37 12 81 -21 130 -24 34 -34 62 -38
102 l-5 55 -45 2 c-25 1 -56 -2 -70 -6z"/>
<path d="M3680 4471 l-105 -6 -3 -254 c-2 -183 1 -257 9 -268 10 -11 28 -12
83 -7 68 7 74 9 129 59 32 29 86 66 120 83 82 41 123 82 163 167 30 62 34 79
34 152 l0 83 -162 -2 c-90 -1 -210 -4 -268 -7z"/>
<path d="M3190 4461 l-55 -6 -3 -129 c-1 -72 0 -137 3 -145 4 -10 17 2 43 40
20 31 54 76 75 102 45 53 65 111 46 133 -12 14 -17 15 -109 5z"/>
<path d="M3463 4458 c-6 -7 -13 -25 -16 -39 -12 -48 -53 -94 -138 -153 -47
-33 -96 -74 -108 -92 -31 -44 -73 -172 -69 -209 l3 -30 195 0 195 0 0 265 0
265 -26 3 c-14 2 -30 -3 -36 -10z"/>
<path d="M4058 4118 c-46 -56 -80 -124 -76 -151 2 -18 11 -23 42 -25 84 -7 86
-5 86 113 0 58 -4 105 -9 105 -5 0 -24 -19 -43 -42z"/>
<path d="M2966 2896 c16 -8 74 -19 127 -25 95 -11 244 -15 236 -7 -7 8 -211
34 -304 40 -83 5 -88 4 -59 -8z"/>
<path d="M4261 2858 c-22 -37 -89 -78 -126 -78 -33 0 -1 -21 33 -22 69 -2 129
54 120 112 -4 24 -5 24 -27 -12z"/>
<path d="M4041 2721 c41 -65 175 -74 230 -15 29 31 21 38 -24 19 -46 -19 -118
-19 -164 0 -47 20 -56 19 -42 -4z"/>
<path d="M6876 2860 c-21 -37 -52 -58 -108 -75 l-43 -13 28 -11 c35 -14 96 0
120 26 23 26 38 72 29 89 -6 11 -12 7 -26 -16z"/>
<path d="M6652 2728 c3 -7 19 -23 38 -35 60 -41 182 -25 210 27 13 24 -3 26
-40 5 -33 -19 -121 -19 -167 0 -43 18 -46 18 -41 3z"/>
<path d="M7915 6960 c-4 -6 -10 -61 -15 -123 -4 -62 -13 -130 -19 -152 -6 -22
-11 -81 -11 -131 0 -56 -6 -105 -14 -125 -8 -19 -12 -47 -9 -62 4 -20 -1 -35
-17 -52 -13 -14 -20 -31 -17 -39 4 -10 1 -16 -8 -16 -22 0 -29 -20 -12 -37 18
-18 37 -9 37 17 0 10 7 20 15 24 11 4 15 -1 15 -17 0 -46 40 -62 58 -23 8 18
16 22 36 19 15 -3 37 2 53 12 15 10 38 18 51 19 18 1 27 10 37 36 7 19 16 43
20 52 5 13 1 20 -18 27 -18 7 -30 24 -41 58 -9 27 -28 66 -43 88 -24 36 -28
52 -34 155 -4 63 -14 138 -23 165 -9 28 -16 62 -16 77 0 29 -15 45 -25 28z"/>
<path d="M1837 6283 c-4 -3 -2 -12 4 -20 13 -15 75 -18 84 -4 12 20 -70 43
-88 24z"/>
<path d="M1997 6283 c18 -2 50 -2 70 0 21 2 7 4 -32 4 -38 0 -55 -2 -38 -4z"/>
<path d="M1746 6264 c-9 -8 -16 -22 -16 -30 0 -25 38 -15 60 16 l21 30 -25 0
c-13 0 -32 -7 -40 -16z"/>
<path d="M8331 6242 c-11 -17 -21 -35 -21 -41 0 -16 32 -13 59 5 22 16 25 16
52 0 15 -9 33 -15 40 -14 9 2 12 -8 10 -34 -3 -43 1 -46 36 -19 13 11 31 17
39 14 10 -4 14 2 14 21 0 15 -6 29 -14 32 -8 3 -16 13 -19 23 -3 13 -19 20
-53 25 -129 19 -120 20 -143 -12z"/>
<path d="M1275 6225 c-5 -2 -29 -9 -52 -15 -46 -12 -58 -30 -19 -30 27 0 53
-24 36 -35 -13 -8 -13 -42 0 -50 17 -11 57 22 65 52 9 38 26 46 40 20 20 -40
67 -30 85 18 7 18 2 21 -54 32 -64 12 -84 14 -101 8z"/>
<path d="M8754 6196 c12 -10 39 -16 70 -16 65 1 43 16 -35 25 -50 6 -53 5 -35
-9z"/>
<path d="M1691 6133 c1 -63 2 -65 10 -28 11 56 11 95 -1 95 -6 0 -10 -28 -9
-67z"/>
<path d="M1510 6130 c0 -5 5 -10 10 -10 6 0 10 5 10 10 0 6 -4 10 -10 10 -5 0
-10 -4 -10 -10z"/>
<path d="M7876 6071 c-4 -6 -15 -41 -25 -78 -10 -37 -31 -112 -46 -166 -32
-108 -31 -113 31 -127 66 -15 69 -6 69 197 0 125 -3 177 -12 180 -6 2 -14 -1
-17 -6z"/>
<path d="M1373 6054 c-3 -9 -1 -31 5 -48 18 -48 15 -64 -18 -106 -26 -33 -28
-39 -15 -50 12 -10 24 -11 52 -2 44 13 57 8 43 -19 -19 -35 14 -55 40 -24 7 8
25 15 41 15 19 0 29 -5 29 -15 0 -8 -7 -15 -15 -15 -20 0 -20 -46 1 -54 22 -9
24 -8 24 10 0 8 5 12 10 9 14 -9 12 16 -5 45 -8 14 -14 42 -15 63 0 45 -18 55
-55 31 -27 -17 -28 -17 -46 7 -26 33 -25 103 1 129 11 11 25 20 30 20 6 0 10
5 10 10 0 6 -25 10 -55 10 -42 0 -57 -4 -62 -16z"/>
<path d="M1277 6054 c-4 -4 -7 -16 -7 -26 0 -13 8 -18 31 -18 26 0 30 3 27 23
-3 22 -36 36 -51 21z"/>
<path d="M1175 5992 c4 -26 8 -48 9 -50 2 -1 18 5 37 15 70 34 63 61 -20 77
l-33 6 7 -48z"/>
<path d="M7762 5961 c-20 -12 -10 -46 14 -49 25 -4 40 24 23 44 -13 16 -19 17
-37 5z"/>
<path d="M8503 5942 c-37 -4 -49 -25 -26 -47 11 -12 19 -13 26 -6 6 6 19 11
28 11 10 0 21 5 25 11 10 18 -18 35 -53 31z"/>
<path d="M8613 5923 c-15 -3 -23 -12 -23 -24 0 -11 -5 -29 -10 -39 -10 -19 -7
-30 22 -80 4 -8 13 -27 19 -42 6 -16 17 -28 25 -28 7 0 34 -7 58 -15 55 -19
96 -11 96 17 0 11 -8 22 -18 24 -9 3 -24 17 -33 32 -8 15 -28 34 -43 42 -26
13 -29 13 -42 -5 -13 -17 -16 -18 -29 -4 -14 14 -14 18 0 45 15 30 21 85 8 83
-5 -1 -18 -4 -30 -6z"/>
<path d="M7964 5866 c-9 -22 4 -36 32 -36 21 0 25 4 22 23 -4 26 -45 37 -54
13z"/>
<path d="M8382 5818 c-7 -7 -12 -21 -12 -33 0 -12 -5 -26 -11 -32 -13 -13 -4
-33 15 -33 8 0 19 -7 26 -15 7 -8 21 -15 32 -15 18 0 20 -4 14 -32 -4 -18 -10
-54 -13 -81 l-6 -47 30 6 c21 4 35 1 46 -11 16 -15 18 -15 23 0 4 9 3 33 -1
53 -4 20 -9 50 -12 65 -3 16 0 39 7 52 10 19 9 27 -5 49 -17 25 -48 35 -59 17
-3 -5 -19 -11 -36 -13 -36 -5 -40 12 -10 42 21 21 19 40 -4 40 -6 0 -17 -5
-24 -12z"/>
<path d="M2026 5779 c-15 -11 -34 -18 -42 -15 -9 3 -14 3 -12 -1 2 -5 10 -20
17 -35 11 -23 12 -35 1 -73 -13 -45 -25 -49 -32 -11 -3 18 -4 19 -20 2 -18
-18 -14 -46 7 -46 7 0 16 -11 19 -25 13 -50 97 -59 112 -12 11 31 5 139 -8
155 -8 9 -5 19 11 35 11 13 21 29 21 35 0 19 -45 14 -74 -9z"/>
<path d="M2121 5771 c-13 -23 -5 -51 15 -51 31 0 65 24 62 44 -4 30 -62 35
-77 7z"/>
<path d="M1381 5750 c-8 -4 -12 -17 -9 -28 5 -17 1 -21 -26 -24 -25 -2 -32 -8
-34 -30 -3 -22 2 -29 23 -34 15 -4 37 -2 51 5 21 9 24 17 24 60 0 52 -7 65
-29 51z"/>
<path d="M1463 5715 c-37 -16 -38 -23 -18 -80 8 -22 15 -57 15 -77 0 -20 5
-40 10 -43 6 -3 10 -20 10 -36 0 -24 4 -30 18 -27 9 2 18 14 20 26 2 13 10 26
18 29 19 7 8 23 -16 23 -34 0 -50 28 -50 88 0 45 4 61 20 75 20 17 27 37 13
37 -5 -1 -23 -7 -40 -15z"/>
<path d="M1253 5694 c-8 -21 13 -42 28 -27 13 13 5 43 -11 43 -6 0 -13 -7 -17
-16z"/>
<path d="M7840 5655 c-14 -16 -5 -35 16 -35 15 0 20 35 5 44 -5 3 -14 -1 -21
-9z"/>
<path d="M1751 5634 c0 -11 3 -14 6 -6 3 7 2 16 -1 19 -3 4 -6 -2 -5 -13z"/>
<path d="M1888 5598 c-8 -21 2 -38 23 -38 23 0 26 35 3 44 -21 8 -21 8 -26 -6z"/>
<path d="M1263 5514 c-3 -8 0 -21 6 -27 10 -9 16 -8 26 7 8 10 12 23 9 27 -9
15 -34 10 -41 -7z"/>
<path d="M1933 5504 c-7 -18 17 -38 31 -24 11 11 1 40 -14 40 -6 0 -13 -7 -17
-16z"/>
<path d="M8531 5464 c0 -11 3 -14 6 -6 3 7 2 16 -1 19 -3 4 -6 -2 -5 -13z"/>
<path d="M1430 5436 c-6 -8 -21 -16 -33 -18 -14 -2 -23 -11 -25 -25 -5 -32 30
-30 74 3 27 21 32 30 23 40 -15 18 -24 18 -39 0z"/>
<path d="M8683 5424 c-3 -8 -1 -20 5 -26 15 -15 43 8 35 28 -7 19 -32 18 -40
-2z"/>
<path d="M8531 5359 c-1 -33 2 -37 30 -43 50 -10 59 -7 59 14 0 27 -30 38 -42
17 -14 -25 -24 -21 -36 16 l-10 32 -1 -36z"/>
<path d="M1254 5356 c-18 -46 11 -75 62 -62 32 8 31 26 -1 26 -18 0 -28 7 -35
25 -11 28 -18 31 -26 11z"/>
</g>
</svg>
